<?xml version="1.0" encoding="UTF-8"?> <svg xmlns="http://www.w3.org/2000/svg" fill="none" viewBox="0 0 92 106"><path fill="#fff" d="M0 83.334 46 106l46-22.666V0H0v83.334Z"></path><path fill="#fff" d="M0 83.334 46 106l46-22.666V0H0v83.334Z"></path><path fill="#000" d="M10.74 13.33q-.37 0-.7-.09-.32-.09-.57-.25-.25-.17-.42-.37-.16-.2-.21-.43l.94-.28q.09.24.32.41.23.17.58.18.37.01.61-.16.23-.17.23-.43 0-.23-.19-.39-.18-.16-.5-.24l-.64-.17q-.36-.09-.63-.28-.27-.18-.43-.46-.15-.27-.15-.63 0-.7.46-1.09.46-.38 1.3-.38.47 0 .82.13.35.14.59.39t.36.6l-.93.28q-.08-.24-.3-.4-.23-.17-.57-.17-.35 0-.55.16-.2.16-.2.46 0 .23.16.36.15.13.43.2l.64.16q.63.16.98.56t.35.89q0 .43-.21.75-.21.33-.61.51t-.96.18Zm5.22.02q-.61 0-1.06-.24-.45-.24-.69-.67-.24-.43-.24-1.02V8.35h.96v3.07q0 .32.13.55.13.24.36.36.24.13.55.13.32 0 .55-.13.24-.12.37-.36.13-.23.13-.55V8.35h.95v3.07q0 .59-.24 1.02-.25.43-.7.67-.46.24-1.07.24Zm3.71-.1v-4.9h1.04l1.43 2.11 1.43-2.11h1.03v4.9h-.95v-3.4l-1.51 2.22-1.51-2.21v3.39Zm6.7 0v-4.9h1.04l1.43 2.11 1.43-2.11h1.03v4.9h-.95v-3.4l-1.51 2.22-1.51-2.21v3.39Zm6.7 0v-4.9h3.1v.87l-2.14.01v1.11h1.84v.85h-1.84v1.19h2.17v.87Zm4.82 0v-4.9h1.82q.52 0 .92.2.4.21.62.56.22.35.22.82 0 .46-.23.82-.24.36-.64.56-.41.2-.93.2h-.82v1.74Zm2.69 0-1.13-1.97.74-.52 1.48 2.49Zm-1.73-2.61h.87q.21 0 .38-.09.18-.09.28-.25.1-.16.1-.37 0-.31-.23-.51-.23-.19-.58-.19h-.82Zm6.45 2.61v-.71q0-.2.12-.44.13-.25.35-.49.23-.25.53-.46l.74-.53q.15-.11.29-.24.14-.13.22-.29.09-.16.09-.3 0-.19-.09-.33-.08-.15-.25-.23-.17-.09-.42-.09-.21 0-.37.09-.16.08-.27.22-.1.14-.15.3l-.98-.17q.07-.35.3-.65.23-.3.6-.49.38-.18.85-.18.55 0 .94.2.39.19.61.53.21.34.21.79t-.25.81q-.25.35-.68.66l-.67.48q-.2.14-.35.31-.14.17-.22.37h2.23v.84Zm6.66.08q-.6 0-1.05-.32-.46-.33-.71-.9-.26-.57-.26-1.31 0-.74.26-1.31.25-.57.71-.9.45-.32 1.04-.32.6 0 1.06.32.45.33.71.9.26.57.26 1.31 0 .74-.26 1.31-.26.57-.71.9-.46.32-1.05.32Zm0-.86q.31 0 .56-.22.25-.21.39-.59.14-.37.14-.86t-.14-.87q-.14-.38-.39-.59-.25-.21-.57-.21-.31 0-.56.21-.24.21-.38.59t-.14.87q0 .49.14.86.14.38.39.59.24.22.56.22Zm3.32.78v-.71q0-.2.13-.44.13-.25.35-.49.22-.25.53-.46l.74-.53q.15-.11.29-.24.13-.13.22-.29.09-.16.09-.3 0-.19-.09-.33-.09-.15-.25-.23-.17-.09-.42-.09-.21 0-.37.09-.17.08-.27.22-.11.14-.15.3l-.98-.17q.07-.35.3-.65.23-.3.6-.49.38-.18.85-.18.55 0 .94.2.39.19.61.53.21.34.21.79t-.25.81q-.25.35-.68.66l-.67.48q-.2.14-.35.31-.14.17-.22.37h2.23v.84Zm6.49.08q-.49 0-.84-.17-.35-.18-.57-.5-.22-.31-.32-.73t-.1-.9q0-.56.12-1.06t.36-.88q.24-.39.62-.61.38-.21.91-.21.38 0 .75.11t.66.32l-.47.7q-.22-.15-.47-.22-.25-.07-.46-.07-.54 0-.84.47-.31.48-.3 1.51l-.19-.14q.16-.38.5-.61.34-.23.8-.23.47 0 .83.21.36.22.56.6.21.37.21.83 0 .46-.22.82-.21.36-.61.56-.39.2-.93.2Zm0-.81q.23 0 .42-.1.18-.11.28-.29.11-.18.11-.42t-.11-.42q-.1-.19-.28-.3-.19-.11-.42-.11-.23 0-.41.11-.19.11-.29.3-.11.18-.11.42t.11.42q.1.18.29.29.18.1.41.1Z" style="white-space:pre"></path><g fill="#000" style="white-space:pre"><path d="M34.39 47.25v-7.7h1.95l2.04 3.04 2.06-3.04h1.95v7.7h-1.78V42.3l-2.22 3.26-2.23-3.26v4.95Zm11.97.13q-.87 0-1.53-.37-.66-.36-1.04-1.01t-.38-1.5q0-.85.37-1.5.37-.64 1.03-1.01.67-.37 1.51-.37.87 0 1.54.37.66.37 1.03 1.01.37.65.37 1.5t-.37 1.5q-.37.65-1.03 1.01-.66.37-1.5.37Zm0-1.58q.33 0 .59-.17.25-.16.4-.45.15-.29.15-.68 0-.38-.15-.68-.15-.29-.41-.45-.26-.17-.6-.17-.35 0-.61.17-.26.16-.41.45-.15.3-.15.68 0 .39.15.68.15.29.42.45.27.17.62.17Zm5.81 1.58q-.54 0-1.01-.16t-.81-.45q-.34-.29-.51-.71l1.41-.59q.15.28.4.42.25.14.52.14t.42-.09q.16-.1.16-.26 0-.18-.16-.28-.16-.1-.46-.17l-.47-.12q-.77-.2-1.18-.66-.42-.46-.42-1.06 0-.85.59-1.31.58-.46 1.61-.46.59 0 1.03.15.45.16.75.44t.44.65l-1.37.56q-.08-.22-.31-.33-.24-.12-.52-.12-.25 0-.38.11-.13.1-.13.28 0 .13.16.22.16.1.47.17l.58.15q.52.13.87.4t.53.62q.17.36.17.77 0 .52-.3.89-.3.38-.84.59-.54.21-1.24.21Zm5.56 0q-.98 0-1.46-.47-.47-.46-.47-1.33v-5.55h1.71v5.12q0 .33.12.48.12.16.38.16.1 0 .23-.05t.24-.13l.59 1.26q-.26.22-.63.36-.37.15-.71.15Zm-2.79-4.19v-1.44h3.83v1.44ZM8.89 58.25v-7.7h1.77v7.7Zm3.08 0v-5.5h1.61l.07.69q.26-.4.65-.61.39-.21.87-.21.68 0 1.12.28.45.28.66.85.25-.55.69-.84.44-.29.99-.29.99 0 1.49.6.5.61.49 1.88v3.15H18.9v-2.82q0-.44-.1-.69-.09-.26-.27-.38-.17-.12-.42-.14-.47-.01-.72.27-.24.28-.24.86v2.9h-1.72v-2.82q0-.44-.09-.69-.1-.26-.27-.38-.18-.12-.42-.14-.47-.01-.72.27t-.25.86v2.9Zm9.74 2.2v-7.7h1.62l.1 1.01v6.69Zm3.28-2.07q-.68 0-1.14-.34-.47-.35-.7-1-.23-.65-.23-1.54 0-.9.23-1.55.23-.64.7-.99.46-.34 1.14-.34.77 0 1.33.34.56.35.86.99.3.65.3 1.55 0 .89-.3 1.54t-.86 1q-.56.34-1.33.34Zm-.44-1.58q.33 0 .58-.17.26-.16.41-.45.15-.29.15-.68 0-.38-.14-.68-.14-.29-.4-.45-.26-.17-.59-.17-.33 0-.59.17-.26.16-.4.46-.14.3-.14.67 0 .39.14.68.14.29.4.45.25.17.58.17Zm3.76 1.45v-7.7h1.72v7.7Zm5.48.13q-.86 0-1.52-.37-.66-.36-1.03-1.01-.38-.65-.38-1.5 0-.86.38-1.51t1.04-1.01q.66-.36 1.53-.36.78 0 1.41.37.63.38 1 1.11.36.74.36 1.84h-4.13l.18-.21q0 .38.16.66.15.29.43.44.27.14.61.14.41 0 .69-.18.28-.18.39-.45l1.52.51q-.22.52-.62.86-.4.34-.92.51-.52.16-1.1.16Zm-1.11-3.36-.18-.22h2.47l-.16.22q0-.41-.16-.65-.17-.24-.41-.35-.24-.1-.48-.1-.25 0-.49.1-.25.11-.42.35-.17.24-.17.65Zm4.63 3.23v-5.5h1.62l.06.69q.27-.4.66-.61.39-.21.86-.21.68 0 1.13.28.44.28.65.85.26-.55.7-.84.44-.29.99-.29.99 0 1.49.6.5.61.49 1.88v3.15h-1.72v-2.82q0-.44-.09-.69-.1-.26-.27-.38-.18-.12-.42-.14-.47-.01-.72.27t-.25.86v2.9h-1.72v-2.82q0-.44-.09-.69-.09-.26-.27-.38-.17-.12-.42-.14-.47-.01-.72.27-.24.28-.24.86v2.9Zm12.33.13q-.86 0-1.52-.37-.66-.36-1.03-1.01-.38-.65-.38-1.5 0-.86.38-1.51t1.04-1.01q.66-.36 1.53-.36.78 0 1.41.37.63.38 1 1.11.36.74.36 1.84H48.3l.19-.21q0 .38.15.66.15.29.43.44.27.14.61.14.41 0 .69-.18.28-.18.39-.45l1.52.51q-.22.52-.62.86-.4.34-.92.51-.52.16-1.1.16Zm-1.11-3.36-.18-.22h2.47l-.16.22q0-.41-.16-.65-.17-.24-.41-.35-.24-.1-.48-.1t-.49.1q-.25.11-.42.35-.17.24-.17.65Zm4.63 3.23v-5.5h1.62l.1 1.01v4.49Zm3.54 0v-2.82h1.72v2.82Zm0-2.82q0-.44-.1-.69-.1-.26-.28-.38-.18-.12-.44-.14-.5-.01-.75.27t-.25.86h-.52q0-.87.26-1.48.27-.61.72-.93.46-.32 1.07-.32.66 0 1.11.27.45.27.67.82.23.55.23 1.41v.31Zm5.13 2.95q-.98 0-1.46-.47-.48-.46-.48-1.33v-5.55h1.72v5.12q0 .33.12.48.12.16.37.16.1 0 .23-.05.14-.05.25-.13l.59 1.26q-.26.22-.63.36-.37.15-.71.15Zm-2.8-4.19v-1.44h3.83v1.44Zm8.12 4.06-.04-1.19v-1.55q0-.44-.08-.77t-.27-.52q-.2-.18-.6-.18-.31 0-.54.14-.23.14-.39.4l-1.5-.5q.19-.41.51-.74.33-.33.8-.52.47-.2 1.1-.2.86 0 1.45.32.6.32.89.89.3.57.3 1.35l-.02 3.07Zm-1.49.13q-.98 0-1.52-.44t-.54-1.24q0-.87.56-1.3.56-.43 1.57-.43h1.51v1.1h-.86q-.55 0-.79.16-.24.15-.24.43 0 .19.18.31.18.11.5.11t.56-.13q.24-.14.38-.37.14-.23.14-.51h.43q0 1.1-.46 1.71-.47.6-1.42.6Zm4.17-.13v-7.7h1.71v6.68l-.09 1.02Zm3.27.13q-.68 0-1.14-.34-.46-.35-.69-1-.23-.65-.23-1.54 0-.9.23-1.55.23-.64.69-.99.46-.34 1.14-.34.77 0 1.33.34.57.35.86.99.3.65.3 1.55 0 .89-.3 1.54-.29.65-.86 1-.56.34-1.33.34Zm-.44-1.58q.33 0 .59-.17.25-.16.4-.45.16-.29.16-.68 0-.38-.15-.68-.14-.29-.4-.45-.26-.17-.59-.17-.33 0-.58.17-.26.16-.41.46-.14.3-.14.67 0 .39.14.68.15.29.4.45.25.17.58.17Zm3.77 1.45v-7.7h1.71v7.7Zm5.47.13q-.85 0-1.51-.37-.66-.36-1.04-1.01-.37-.65-.37-1.5 0-.86.38-1.51t1.04-1.01q.66-.36 1.53-.36.78 0 1.4.37.63.38 1 1.11.37.74.37 1.84h-4.14l.19-.21q0 .38.15.66.16.29.43.44.28.14.62.14.4 0 .69-.18.28-.18.39-.45l1.51.51q-.22.52-.62.86-.4.34-.92.51-.51.16-1.1.16Zm-1.11-3.36-.17-.22h2.46l-.15.22q0-.41-.17-.65-.16-.24-.41-.35-.24-.1-.48-.1t-.49.1q-.25.11-.42.35-.17.24-.17.65Z"></path></g><path fill="#FF492C" d="M71 0h21v21H71z"></path><path fill="#fff" fill-rule="evenodd" d="M86.05 8.041h-1.794c.049-.28.222-.438.575-.616l.33-.168c.592-.303.906-.644.906-1.2a.972.972 0 0 0-.407-.828c-.265-.2-.59-.298-.965-.298-.298 0-.569.076-.818.233a1.383 1.383 0 0 0-.542.59l.52.519c.2-.406.493-.606.878-.606.326 0 .526.168.526.4 0 .195-.097.357-.472.546l-.21.103c-.462.233-.782.498-.966.8-.184.298-.276.682-.276 1.142v.124h2.716v-.74ZM85.806 9.641h-2.967l-1.483 2.57h2.967l1.483 2.57 1.483-2.57-1.483-2.57Z" clip-rule="evenodd"></path><path fill="#fff" fill-rule="evenodd" d="M81.608 13.928a3.433 3.433 0 0 1-3.43-3.428 3.433 3.433 0 0 1 3.43-3.427l1.175-2.456a6 6 0 0 0-7.177 5.883 6 6 0 0 0 6.002 5.998 5.978 5.978 0 0 0 3.535-1.15l-1.3-2.25c-.6.516-1.382.83-2.235.83Z" clip-rule="evenodd"></path><path fill="#288DFF" d="M0 83.223v-6.204l46 23.043 46-23.043v6.272L46 106 0 83.223Z"></path><path fill="#FFF" d="M0 77.566v-6.5l46 23.042 46-23.042v6.5l-46 22.48-46-22.48Z"></path><path fill="#FFF" d="M0 71.631v-6.5l46 23.043L92 65.13v6.5l-46 22.48-46-22.48Z"></path><path stroke="#000" d="M91.5.5v82.522L46 105.441.5 83.022V.5h91ZM91.53 20.533H.625M71.262.909v19.624"></path></svg> 